# xmcd
#
# Track frame offsets: 
#        150
#        17391
#        30460
#        51939
#        62371
#        79059
#        100246
#        112636
#        129751
#        141714
#        159053
#        178667
#        196683
#        212653
#        230083
#        243531
#        257834
#        282621
#
# Disc length: 3905 seconds
#
# Revision: 0
# Processed by: cddbd v1.5.1PL2 Copyright (c) Steve Scherf et al.
# Submitted via: ExactAudioCopy v0.95b4
#
DISCID=ed0f3f12
DTITLE=Specs Hildebrand and The Living Room Band - A Wink At The Moon
DYEAR=2006
DGENRE=Country/Rock
TTITLE0=Skulls In The Dessert
TTITLE1=The Hard Way
TTITLE2=I Survived
TTITLE3=Head, Heart And Feet
TTITLE4=Trouble Comes Cheap
TTITLE5=The Devil Has Come (To Claim His Own)
TTITLE6=You Know Your Baby Loves You (When She Aimes To High)
TTITLE7=Stuck In Missoula
TTITLE8=Crash Course
TTITLE9=What Did I Do
TTITLE10=Rearview Mirror
TTITLE11=So Long Ago (With The Cats)
TTITLE12=Home (With Frankie Miller)
TTITLE13=Bones
TTITLE14=A Piece Of Paper And A Ring (With The Cats)
TTITLE15=Stop That Tape
TTITLE16=I Never Loved You Much
TTITLE17=Ugly Guys Are Cool
EXTD=
EXTT0=
EXTT1=
EXTT2=
EXTT3=
EXTT4=
EXTT5=
EXTT6=
EXTT7=
EXTT8=
EXTT9=
EXTT10=
EXTT11=
EXTT12=
EXTT13=
EXTT14=
EXTT15=
EXTT16=
EXTT17=
PLAYORDER=
